<svg xmlns="http://www.w3.org/2000/svg" viewBox="0 0 128 128">
  <defs>
    <linearGradient id="bgGrad" x1="0%" y1="0%" x2="100%" y2="100%">
      <stop offset="0%" stop-color="#1e3a5f"/>
      <stop offset="100%" stop-color="#0d1b2a"/>
    </linearGradient>
    <linearGradient id="jsonGrad" x1="0%" y1="0%" x2="100%" y2="100%">
      <stop offset="0%" stop-color="#f9a825"/>
      <stop offset="100%" stop-color="#ff6f00"/>
    </linearGradient>
    <linearGradient id="uiGrad" x1="0%" y1="0%" x2="100%" y2="100%">
      <stop offset="0%" stop-color="#4fc3f7"/>
      <stop offset="100%" stop-color="#0288d1"/>
    </linearGradient>
  </defs>
  
  <!-- Background rounded square -->
  <rect x="4" y="4" width="120" height="120" rx="24" ry="24" fill="url(#bgGrad)"/>
  
  <!-- Left JSON Brace { - using path for better control -->
  <path d="M32 38 Q32 32 38 32 L42 32 L42 36 L40 36 Q36 36 36 40 L36 58 Q36 64 30 64 Q36 64 36 70 L36 88 Q36 92 40 92 L42 92 L42 96 L38 96 Q32 96 32 90 L32 70 Q32 64 26 64 Q32 64 32 58 Z" 
        fill="url(#jsonGrad)" stroke="url(#jsonGrad)" stroke-width="1"/>
  
  <!-- Right JSON Brace } -->
  <path d="M96 38 Q96 32 90 32 L86 32 L86 36 L88 36 Q92 36 92 40 L92 58 Q92 64 98 64 Q92 64 92 70 L92 88 Q92 92 88 92 L86 92 L86 96 L90 96 Q96 96 96 90 L96 70 Q96 64 102 64 Q96 64 96 58 Z" 
        fill="url(#jsonGrad)" stroke="url(#jsonGrad)" stroke-width="1"/>
  
  <!-- UI Form Elements in center - compact layout -->
  <!-- Toggle switch -->
  <rect x="48" y="38" width="32" height="14" rx="7" ry="7" fill="#37474f"/>
  <circle cx="73" cy="45" r="8" fill="url(#uiGrad)"/>
  
  <!-- Checkbox with check -->
  <rect x="48" y="56" width="14" height="14" rx="3" ry="3" fill="url(#uiGrad)"/>
  <polyline points="51,63 55,67 61,59" stroke="#ffffff" stroke-width="2.5" fill="none" stroke-linecap="round" stroke-linejoin="round"/>
  
  <!-- Input field -->
  <rect x="66" y="57" width="14" height="12" rx="2" ry="2" fill="#546e7a"/>
  <line x1="68" y1="63" x2="78" y2="63" stroke="#90a4ae" stroke-width="1.5"/>
  
  <!-- Dropdown selector -->
  <rect x="48" y="74" width="32" height="14" rx="3" ry="3" fill="#546e7a"/>
  <polyline points="70,79 74,84 78,79" stroke="#4fc3f7" stroke-width="2" fill="none" stroke-linecap="round" stroke-linejoin="round"/>
  <line x1="51" y1="81" x2="66" y2="81" stroke="#90a4ae" stroke-width="1.5"/>
  
  <!-- Decorative dots -->
  <circle cx="20" cy="20" r="3" fill="#4fc3f7" opacity="0.6"/>
  <circle cx="108" cy="20" r="3" fill="#f9a825" opacity="0.6"/>
  <circle cx="20" cy="108" r="3" fill="#f9a825" opacity="0.6"/>
  <circle cx="108" cy="108" r="3" fill="#4fc3f7" opacity="0.6"/>
</svg>
